<?xml version="1.0" standalone="no"?>
<!DOCTYPE svg PUBLIC "-//W3C//DTD SVG 20010904//EN"
 "http://www.w3.org/TR/2001/REC-SVG-20010904/DTD/svg10.dtd">
<svg version="1.0" xmlns="http://www.w3.org/2000/svg"
 width="4134.000000pt" height="1535.000000pt" viewBox="0 0 4134.000000 1535.000000"
 preserveAspectRatio="xMidYMid meet">

<g transform="translate(0.000000,1535.000000) scale(0.100000,-0.100000)"
fill="#000000" stroke="none">
<path d="M3378 14300 c-173 -36 -313 -114 -443 -244 -170 -170 -302 -424 -380
-730 -62 -244 -70 -323 -70 -696 1 -392 15 -545 96 -1073 28 -181 48 -334 46
-340 -3 -7 -65 -27 -138 -46 -955 -240 -1475 -461 -1891 -803 -189 -156 -303
-294 -389 -473 -110 -229 -133 -455 -69 -696 93 -354 402 -718 847 -995 145
-91 392 -221 444 -235 122 -33 261 85 261 221 0 107 -52 159 -377 374 -143 95
-305 208 -360 252 -118 95 -257 240 -304 318 -196 327 -93 634 319 946 222
169 503 310 853 429 307 105 898 256 917 235 7 -9 272 -747 412 -1149 62 -178
69 -206 65 -255 -6 -66 -26 -114 -268 -647 -297 -652 -410 -928 -538 -1310
-141 -420 -215 -734 -268 -1128 -24 -185 -24 -660 0 -835 50 -354 161 -599
361 -795 149 -145 325 -234 539 -271 134 -24 380 -14 546 21 376 79 717 241
1138 541 153 109 184 144 191 215 12 124 -102 258 -219 259 -57 0 -96 -18
-233 -108 -374 -247 -648 -379 -936 -454 -148 -39 -338 -49 -444 -24 -214 50
-365 210 -431 456 -73 275 -88 535 -47 820 124 855 224 1200 642 2230 93 228
173 427 179 443 11 28 18 31 45 21 8 -3 93 -164 190 -357 469 -943 938 -1683
1469 -2319 l92 -111 5 309 5 308 51 -64 c51 -65 184 -217 633 -720 259 -291
606 -649 738 -762 320 -276 625 -436 966 -509 122 -26 155 -39 201 -79 51 -45
59 -81 51 -220 l-7 -117 -62 -6 c-130 -12 -360 37 -573 123 -518 206 -1132
702 -1743 1405 -91 104 -186 212 -212 240 l-48 50 0 -207 c0 -239 129 -2861
161 -3268 39 -497 142 -769 391 -1026 494 -510 1298 -528 1806 -40 189 182
309 397 377 680 14 54 26 100 28 102 2 3 29 -33 59 -78 193 -290 400 -469 732
-632 494 -243 990 -393 1541 -468 152 -20 211 -23 545 -23 303 0 403 4 520 18
538 68 959 201 1346 428 335 196 639 473 886 805 130 175 213 325 379 682 57
122 106 222 110 222 3 0 20 -35 39 -77 98 -226 210 -433 356 -653 539 -817
1290 -1267 2304 -1381 157 -18 519 -15 675 5 570 73 1078 283 1558 644 72 55
169 132 214 171 45 39 84 71 86 71 3 0 38 -28 79 -62 40 -33 113 -88 162 -120
587 -387 1331 -271 1739 271 76 101 157 248 200 366 64 175 167 582 322 1285
163 738 290 1292 331 1450 54 207 104 284 226 347 76 39 219 45 316 13 121
-38 213 -129 247 -243 32 -108 27 -134 -174 -1010 -264 -1147 -407 -1777 -426
-1878 -37 -204 -36 -464 4 -632 106 -447 466 -812 921 -934 139 -37 376 -44
546 -15 487 84 814 346 993 798 49 125 102 320 520 1939 40 158 50 185 56 160
53 -216 83 -324 125 -447 288 -852 880 -1555 1621 -1922 312 -155 576 -231
989 -283 196 -25 735 -25 910 0 802 113 1425 460 1931 1077 201 245 425 601
549 873 19 42 37 76 40 76 3 0 44 -80 92 -177 505 -1025 1264 -1640 2238
-1816 245 -44 338 -51 670 -51 337 1 451 11 695 60 535 108 1008 350 1404 718
308 286 568 645 797 1100 l94 188 0 -98 c0 -54 -8 -156 -17 -228 -22 -181 -22
-469 1 -600 50 -279 163 -502 347 -685 194 -192 455 -333 697 -375 110 -19
316 -19 428 0 106 19 291 79 398 130 361 171 597 482 675 889 29 149 61 532
126 1506 19 289 85 1218 145 2065 60 847 125 1768 145 2046 19 279 42 580 50
670 39 447 39 444 26 567 -34 333 -164 615 -386 837 -171 171 -365 277 -625
340 -100 25 -390 31 -513 11 -482 -79 -850 -393 -996 -849 -67 -210 -97 -494
-181 -1712 -27 -401 -65 -982 -85 -1290 -19 -308 -42 -625 -50 -705 -8 -80
-15 -197 -15 -260 l-1 -115 -63 175 c-534 1483 -1388 2251 -2706 2432 -186 25
-606 35 -787 19 -1112 -102 -1953 -736 -2539 -1913 -43 -87 -81 -158 -84 -158
-3 0 -32 53 -65 117 -483 940 -1120 1547 -1897 1807 -547 183 -1200 212 -1793
81 -159 -35 -411 -119 -563 -188 -548 -248 -1021 -690 -1398 -1307 -31 -52
-106 -189 -165 -304 -75 -147 -108 -203 -112 -190 -4 11 -26 91 -51 179 -66
236 -109 354 -185 510 -115 233 -231 394 -412 571 -280 271 -625 459 -1082
589 -170 48 -331 80 -702 139 -299 48 -320 53 -317 71 2 11 39 173 83 360 167
712 202 934 181 1143 -30 297 -142 533 -352 742 -184 183 -398 305 -647 367
-95 24 -128 27 -273 28 -137 0 -182 -4 -269 -23 -501 -112 -822 -395 -989
-872 -37 -106 -57 -192 -682 -2900 -549 -2379 -706 -3049 -714 -3058 -3 -3
-47 20 -98 51 -220 133 -397 194 -589 204 -212 11 -313 -17 -779 -215 -168
-71 -330 -135 -360 -142 -30 -8 -91 -14 -135 -14 -234 0 -426 148 -574 441
-110 220 -146 470 -105 740 59 404 238 643 521 699 154 31 265 14 658 -100
305 -88 386 -101 610 -100 177 0 196 2 278 27 387 119 697 475 788 907 28 134
30 343 5 473 -36 187 -117 373 -226 518 -70 94 -216 231 -316 295 -273 179
-656 333 -1011 408 -366 77 -788 86 -1186 26 -910 -139 -1604 -585 -2124
-1365 -213 -318 -319 -545 -488 -1035 -43 -124 -82 -236 -87 -250 -9 -23 -12
-19 -52 56 -254 476 -658 832 -1211 1067 -336 143 -962 374 -1550 572 -192 65
-354 122 -359 126 -5 4 -6 18 -2 32 6 25 4 24 148 52 51 9 629 -103 978 -190
309 -78 419 -96 570 -96 125 -1 154 3 270 32 496 122 872 614 916 1195 16 221
-51 470 -181 670 -239 369 -870 729 -1580 899 -154 37 -408 81 -525 90 -108 8
-208 25 -246 41 -18 8 -82 58 -142 112 -462 420 -967 697 -1762 967 -488 165
-963 289 -1480 384 -650 119 -1182 177 -2125 231 -197 12 -361 23 -363 25 -12
11 200 267 427 514 623 680 1391 1286 1912 1510 503 215 853 213 1061 -7 155
-165 225 -403 235 -802 5 -220 -9 -403 -48 -627 -42 -241 -19 -336 96 -396 59
-31 166 -30 221 1 50 29 90 89 103 156 15 73 57 393 77 581 21 200 24 503 6
605 -107 602 -374 954 -818 1077 -92 26 -112 28 -294 28 -223 0 -297 -12 -543
-92 -429 -138 -833 -373 -1337 -777 -541 -434 -1024 -924 -1536 -1561 -175
-218 -197 -229 -476 -245 -235 -14 -459 -34 -728 -67 -118 -14 -259 -26 -312
-27 -111 -1 -136 10 -176 82 -44 78 -99 383 -144 787 -20 184 -17 679 5 830
69 472 211 717 469 813 155 58 390 44 578 -32 67 -28 258 -143 608 -368 144
-93 281 -176 304 -184 90 -31 175 -10 238 62 43 50 60 93 60 154 0 99 -48 154
-315 355 -390 294 -703 438 -1066 490 -144 20 -352 18 -461 -5z m2002 -3340
c1427 -43 2553 -222 3630 -579 146 -49 330 -114 410 -146 203 -80 499 -226
666 -327 182 -110 367 -241 351 -249 -7 -4 -30 -10 -52 -13 -88 -16 -317 -77
-440 -119 -560 -190 -1007 -496 -1431 -981 l-61 -69 -68 174 c-131 335 -501
1182 -550 1259 -72 111 -180 148 -290 96 -62 -28 -110 -82 -126 -138 -20 -72
0 -143 106 -383 99 -224 120 -273 112 -265 -3 3 -37 52 -75 110 -120 178 -252
314 -403 415 -164 110 -367 196 -547 232 -128 25 -356 23 -485 -5 -199 -44
-421 -134 -438 -178 -5 -14 -9 -27 -9 -28 0 -2 46 -6 103 -9 306 -17 495 -175
568 -472 31 -125 31 -295 0 -380 -59 -164 -207 -303 -391 -366 -87 -30 -284
-33 -375 -5 -222 67 -353 222 -438 515 l-24 82 -36 -40 c-196 -217 -147 -700
118 -1156 81 -139 157 -242 275 -374 91 -101 92 -104 79 -131 -38 -75 -375
-670 -380 -670 -9 0 -214 289 -261 370 -83 140 -672 1240 -1067 1991 -74 141
-84 183 -61 243 12 33 466 735 762 1181 240 360 259 383 343 413 39 14 93 14
485 2z m-1402 -412 c-144 -222 -303 -467 -354 -546 -51 -78 -95 -139 -97 -135
-14 23 -318 966 -313 970 6 7 917 110 983 112 l42 1 -261 -402z m7062 -915
c111 -69 225 -271 265 -472 24 -116 16 -344 -14 -451 -29 -99 -108 -258 -173
-345 -75 -100 -257 -278 -369 -363 -191 -142 -464 -291 -733 -397 -105 -42
-125 -47 -177 -43 -68 5 -99 24 -143 86 -34 48 -45 125 -26 172 23 55 94 103
356 240 414 216 551 305 704 461 178 180 241 364 191 558 -38 153 -92 245
-260 446 -56 66 -101 124 -101 128 0 5 100 7 223 5 208 -3 224 -4 257 -25z
m-3240 -813 c222 -577 304 -776 344 -837 23 -35 44 -63 47 -63 3 0 22 37 42
83 131 302 159 357 182 357 12 0 27 -6 33 -12 12 -16 99 -297 182 -588 157
-552 245 -1000 286 -1451 19 -207 21 -637 5 -824 -14 -159 -59 -477 -69 -487
-6 -6 -274 213 -341 277 -11 11 -10 30 8 127 74 395 42 859 -104 1543 -46 214
-213 924 -223 949 -7 17 -14 12 -54 -37 -51 -62 -93 -178 -147 -407 -56 -232
-66 -329 -66 -625 0 -308 12 -410 75 -660 85 -335 226 -601 429 -812 l60 -62
-55 -153 c-139 -385 -240 -507 -454 -552 -45 -9 -77 -11 -80 -6 -11 17 -75
1080 -90 1490 -6 162 -15 351 -21 420 -33 406 -165 702 -419 944 -65 62 -89
90 -82 99 306 389 379 517 449 783 26 102 28 121 27 304 0 188 -1 199 -33 310
-38 138 -45 167 -38 160 3 -3 51 -124 107 -270z m26813 -3475 c217 -46 414
-261 496 -540 51 -174 74 -466 52 -654 -49 -413 -286 -691 -591 -691 -186 0
-328 90 -469 296 -234 345 -236 905 -5 1344 80 153 241 254 414 259 19 0 65
-6 103 -14z m-5957 -9 c208 -55 385 -263 468 -549 57 -195 75 -487 42 -681
-66 -395 -294 -646 -586 -646 -132 0 -236 44 -327 138 -103 105 -224 327 -262
477 -115 462 -32 902 216 1136 61 58 155 113 221 128 57 14 171 12 228 -3z
m-19691 -471 c371 -238 752 -391 1595 -640 586 -173 628 -188 693 -244 62 -52
107 -106 107 -129 0 -27 -61 -129 -100 -167 -37 -36 -42 -38 -172 -57 -176
-26 -400 -21 -533 11 -138 34 -319 86 -549 157 -483 149 -663 186 -891 186
-165 -1 -276 -18 -409 -66 -278 -99 -508 -307 -707 -637 l-49 -82 0 189 c0
172 -5 265 -26 595 l-7 107 59 11 c167 33 336 105 450 193 167 128 334 364
419 590 11 30 22 45 29 41 6 -4 47 -30 91 -58z"/>
</g>
</svg>
